# xmcd
#
# Track frame offsets:
#	182
#	14520
#	24005
#	36072
#	55917
#	67987
#	78472
#	88835
#	100615
#	115737
#	128297
#	141877
#	155160
#
# Disc length: 2165 seconds
#
# Revision: 2
# Processed by: cddbd v1.5.2PL0 Copyright (c) Steve Scherf et al.
# Submitted via: audiograbber 1.83.01
#
DISCID=9a08730d
DTITLE=COP and Mr. Arthur Robinson - Tradition
DYEAR=1993
DGENRE=Bluegrass
TTITLE0=Little Georgia Rose
TTITLE1=Welcomed In
TTITLE2=Rawhide
TTITLE3=Have You Lost All The Love
TTITLE4=Lonesome Without You
TTITLE5=How Mountain Girls Can Love
TTITLE6=If I Lose
TTITLE7=Unwanted Love
TTITLE8=Nashville Blues
TTITLE9=Rose Of Old Kentucky
TTITLE10=Praying
TTITLE11=Let The Best Man Win
TTITLE12=Sally Ann
EXTD=
EXTT0=
EXTT1=
EXTT2=
EXTT3=
EXTT4=
EXTT5=
EXTT6=
EXTT7=
EXTT8=
EXTT9=
EXTT10=
EXTT11=
EXTT12=
PLAYORDER=
